<svg width="41" height="26" viewBox="0 0 41 26" fill="none" xmlns="http://www.w3.org/2000/svg">
<g clip-path="url(#clip0_1419_1369)">
<path fill-rule="evenodd" clip-rule="evenodd" d="M8.92379 25.8834H32.2981H33.2156C33.4025 25.8834 33.589 25.8636 33.7718 25.8244C40.6868 24.3427 42.2166 15.1602 36.1555 11.5166L35.7943 11.2994C36.2264 5.92201 31.1125 1.79478 25.9476 3.35246L24.1071 3.90751L21.5459 2.02504C14.6255 -3.06149 4.91165 2.22677 5.42763 10.7999C-1.95792 13.2332 -1.52406 23.8239 6.03576 25.6449L6.35631 25.7221C6.80112 25.8292 7.25705 25.8834 7.71458 25.8834H8.92379ZM20.9912 11.7757C20.9153 11.4344 20.5772 11.2192 20.2359 11.2951C19.8946 11.3709 19.6794 11.7091 19.7552 12.0504C19.8358 12.413 20.1028 13.1483 20.6471 13.7532C20.3201 14.2813 20.0504 14.9951 19.9134 15.9539C19.6445 17.8363 20.7118 18.9661 21.4714 18.9661C22.2702 18.9661 22.7178 18.8622 23.2372 17.7197C23.3082 17.5634 23.3601 17.3881 23.4124 17.2115L23.4124 17.2114C23.4862 16.9625 23.5607 16.7111 23.6904 16.5069C24.3403 15.4842 25.0729 14.0046 24.4774 12.9836C24.2241 12.5495 23.4645 12.2106 22.5782 12.3506C22.2827 12.3972 21.8963 12.5272 21.5064 12.8096C21.2095 12.439 21.0401 11.9958 20.9912 11.7757ZM12.0605 11.7757C11.9846 11.4344 11.6465 11.2193 11.3052 11.2951C10.9639 11.3709 10.7487 11.7091 10.8245 12.0504C10.9051 12.4131 11.1722 13.1486 11.7167 13.7536C11.3898 14.2817 11.1202 14.9953 10.9832 15.9539C10.7143 17.8364 11.7816 18.9661 12.5412 18.9661C13.34 18.9661 13.7876 18.8622 14.307 17.7197C14.378 17.5634 14.4299 17.3881 14.4822 17.2115C14.556 16.9626 14.6305 16.7111 14.7602 16.5069C15.4101 15.4843 16.1427 14.0046 15.5472 12.9836C15.2939 12.5495 14.5343 12.2107 13.648 12.3506C13.3525 12.3973 12.9659 12.5273 12.5759 12.8099C12.2789 12.4392 12.1094 11.9959 12.0605 11.7757Z" fill="#584C4C"/>
</g>
<defs>
<clipPath id="clip0_1419_1369">
<rect width="40.084" height="25.9841" fill="white"/>
</clipPath>
</defs>
</svg>
