<svg width="20" height="20" viewBox="0 0 20 20" fill="none" xmlns="http://www.w3.org/2000/svg">
<path d="M11.5 1.5C11.5 1.10218 11.342 0.720644 11.0607 0.43934C10.7794 0.158035 10.3978 0 10 0C9.60218 0 9.22064 0.158035 8.93934 0.43934C8.65804 0.720644 8.5 1.10218 8.5 1.5V8.5H1.5C1.10218 8.5 0.720644 8.65804 0.43934 8.93934C0.158035 9.22064 0 9.60218 0 10C0 10.3978 0.158035 10.7794 0.43934 11.0607C0.720644 11.342 1.10218 11.5 1.5 11.5H8.5V18.5C8.5 18.8978 8.65804 19.2794 8.93934 19.5607C9.22064 19.842 9.60218 20 10 20C10.3978 20 10.7794 19.842 11.0607 19.5607C11.342 19.2794 11.5 18.8978 11.5 18.5V11.5H18.5C18.8978 11.5 19.2794 11.342 19.5607 11.0607C19.842 10.7794 20 10.3978 20 10C20 9.60218 19.842 9.22064 19.5607 8.93934C19.2794 8.65804 18.8978 8.5 18.5 8.5H11.5V1.5Z" fill="white"/>
</svg>
