<svg width="34" height="34" viewBox="0 0 34 34" fill="none" xmlns="http://www.w3.org/2000/svg">
<rect x="1.5" y="1.5" width="31" height="31" rx="15.5" fill="#C1BDBD"/>
<rect x="1.5" y="1.5" width="31" height="31" rx="15.5" stroke="white" stroke-width="3"/>
<path fill-rule="evenodd" clip-rule="evenodd" d="M15.3333 23.75H18.6663C21.007 23.75 22.1778 23.75 23.0185 23.1988C23.3814 22.9611 23.6938 22.6543 23.938 22.2958C24.4998 21.4708 24.4998 20.321 24.4998 18.023C24.4998 15.725 24.4998 14.5753 23.938 13.7503C23.6938 13.3918 23.3814 13.0849 23.0185 12.8473C22.4785 12.4925 21.802 12.3658 20.7663 12.3208C20.272 12.3208 19.8468 11.9533 19.75 11.477C19.6761 11.1282 19.484 10.8156 19.2061 10.592C18.9283 10.3684 18.5818 10.2476 18.2253 10.25H15.7743C15.0333 10.25 14.395 10.7638 14.2495 11.477C14.1528 11.9533 13.7275 12.3208 13.2333 12.3208C12.1983 12.3658 11.5218 12.4933 10.981 12.8473C10.6184 13.085 10.3062 13.3919 10.0623 13.7503C9.49976 14.5753 9.49976 15.7243 9.49976 18.023C9.49976 20.3218 9.49976 21.47 10.0615 22.2958C10.3045 22.6528 10.6165 22.9595 10.981 23.1988C11.8218 23.75 12.9925 23.75 15.3333 23.75ZM16.9998 14.9548C15.274 14.9548 13.8745 16.328 13.8745 18.0223C13.8745 19.7165 15.2748 21.092 16.9998 21.092C18.7248 21.092 20.125 19.718 20.125 18.0238C20.125 16.3295 18.7248 14.9548 16.9998 14.9548ZM16.9998 16.1818C15.9648 16.1818 15.1248 17.006 15.1248 18.023C15.1248 19.0393 15.9648 19.8635 16.9998 19.8635C18.0348 19.8635 18.8748 19.0393 18.8748 18.023C18.8748 17.0068 18.0348 16.1818 16.9998 16.1818ZM20.5413 15.5683C20.5413 15.2293 20.821 14.9548 21.1668 14.9548H21.9993C22.3443 14.9548 22.6248 15.2293 22.6248 15.5683C22.6232 15.7325 22.5565 15.8893 22.4393 16.0043C22.3222 16.1194 22.1642 16.1832 22 16.1818H21.1668C21.0854 16.1826 21.0047 16.1673 20.9292 16.1369C20.8538 16.1065 20.785 16.0616 20.7269 16.0046C20.6689 15.9476 20.6226 15.8798 20.5907 15.8049C20.5588 15.73 20.542 15.6496 20.5413 15.5683Z" fill="white"/>
</svg>
