<svg width="13" height="14" viewBox="0 0 13 14" fill="none" xmlns="http://www.w3.org/2000/svg">
<rect y="0.631958" width="12.7036" height="12.7036" rx="6.35181" fill="#C1BDBD"/>
<path d="M3.93826 4.52761C3.9857 4.48088 4.04188 4.44397 4.1036 4.41898C4.16532 4.39399 4.23136 4.38141 4.29794 4.38196C4.36453 4.38251 4.43035 4.39619 4.49164 4.4222C4.55294 4.44821 4.6085 4.48605 4.65516 4.53356L6.47949 6.38776L8.33436 4.56411C8.38182 4.51743 8.43801 4.48055 8.49973 4.45559C8.56144 4.43062 8.62747 4.41806 8.69404 4.41861C8.76061 4.41916 8.82642 4.43282 8.88771 4.45881C8.949 4.48479 9.00458 4.5226 9.05126 4.57006C9.09794 4.61753 9.13482 4.67372 9.15978 4.73543C9.18475 4.79715 9.19731 4.86318 9.19676 4.92975C9.19621 4.99632 9.18255 5.06213 9.15656 5.12342C9.13057 5.18471 9.09277 5.24028 9.04531 5.28696L7.19111 7.11129L9.01476 8.96616C9.10903 9.06202 9.16137 9.1914 9.16026 9.32584C9.15914 9.46029 9.10466 9.58879 9.0088 9.68306C8.91295 9.77734 8.78357 9.82968 8.64912 9.82856C8.51467 9.82745 8.38618 9.77297 8.2919 9.67711L6.46757 7.82291L4.61271 9.64656C4.51685 9.74084 4.38747 9.79318 4.25302 9.79206C4.11858 9.79094 3.99008 9.73646 3.8958 9.64061C3.80153 9.54475 3.74919 9.41537 3.7503 9.28092C3.75142 9.14648 3.8059 9.01798 3.90176 8.92371L5.75595 7.09938L3.93231 5.24451C3.88558 5.19707 3.84867 5.14088 3.82367 5.07917C3.79868 5.01745 3.7861 4.95141 3.78666 4.88482C3.78721 4.81824 3.80088 4.75242 3.8269 4.69112C3.85291 4.62983 3.89075 4.57426 3.93826 4.52761Z" fill="white"/>
</svg>
