<svg width="26" height="14" viewBox="0 0 26 14" fill="none" xmlns="http://www.w3.org/2000/svg">
<path d="M19.2499 0.749954H15.4999C14.8124 0.749954 14.2499 1.31245 14.2499 1.99995C14.2499 2.68745 14.8124 3.24995 15.4999 3.24995H19.2499C21.3124 3.24995 22.9999 4.93745 22.9999 6.99995C22.9999 9.06245 21.3124 10.75 19.2499 10.75H15.4999C14.8124 10.75 14.2499 11.3125 14.2499 12C14.2499 12.6875 14.8124 13.25 15.4999 13.25H19.2499C22.6999 13.25 25.4999 10.45 25.4999 6.99995C25.4999 3.54995 22.6999 0.749954 19.2499 0.749954ZM7.99988 6.99995C7.99988 7.68745 8.56238 8.24995 9.24988 8.24995H16.7499C17.4374 8.24995 17.9999 7.68745 17.9999 6.99995C17.9999 6.31245 17.4374 5.74995 16.7499 5.74995H9.24988C8.56238 5.74995 7.99988 6.31245 7.99988 6.99995ZM10.4999 10.75H6.74988C4.68738 10.75 2.99988 9.06245 2.99988 6.99995C2.99988 4.93745 4.68738 3.24995 6.74988 3.24995H10.4999C11.1874 3.24995 11.7499 2.68745 11.7499 1.99995C11.7499 1.31245 11.1874 0.749954 10.4999 0.749954H6.74988C3.29988 0.749954 0.499878 3.54995 0.499878 6.99995C0.499878 10.45 3.29988 13.25 6.74988 13.25H10.4999C11.1874 13.25 11.7499 12.6875 11.7499 12C11.7499 11.3125 11.1874 10.75 10.4999 10.75Z" fill="#584C4C"/>
</svg>
