<svg width="83" height="42" viewBox="0 0 83 42" fill="none" xmlns="http://www.w3.org/2000/svg">
<rect width="83" height="42" rx="14" fill="#F0F0F0"/>
<path d="M21.6079 27V15.16H23.9759V25.016H28.7919V27H21.6079ZM34.5544 27.224C31.4024 27.224 29.2584 24.888 29.2584 21.032C29.2584 17.176 31.4024 14.952 34.5544 14.952C37.6904 14.952 39.8344 17.192 39.8344 21.032C39.8344 24.888 37.6904 27.224 34.5544 27.224ZM34.5544 25.176C36.3144 25.176 37.4344 23.56 37.4344 21.032C37.4344 18.504 36.3144 16.984 34.5544 16.984C32.7784 16.984 31.6744 18.504 31.6744 21.032C31.6744 23.56 32.7784 25.176 34.5544 25.176ZM46.9309 27.224C43.7149 27.224 41.2509 25.08 41.2509 21.128C41.2509 17.224 43.7789 14.952 46.9309 14.952C48.6269 14.952 49.8109 15.688 50.5789 16.456L49.3309 17.976C48.7389 17.416 48.0669 16.984 47.0109 16.984C45.0269 16.984 43.6669 18.52 43.6669 21.048C43.6669 23.64 44.8509 25.176 47.1709 25.176C47.7469 25.176 48.3229 25.016 48.6589 24.744V22.408H46.5469V20.472H50.7709V25.8C49.9709 26.6 48.5629 27.224 46.9309 27.224ZM57.6956 27.224C54.5436 27.224 52.3996 24.888 52.3996 21.032C52.3996 17.176 54.5436 14.952 57.6956 14.952C60.8316 14.952 62.9756 17.192 62.9756 21.032C62.9756 24.888 60.8316 27.224 57.6956 27.224ZM57.6956 25.176C59.4556 25.176 60.5756 23.56 60.5756 21.032C60.5756 18.504 59.4556 16.984 57.6956 16.984C55.9196 16.984 54.8156 18.504 54.8156 21.032C54.8156 23.56 55.9196 25.176 57.6956 25.176Z" fill="#6E6363"/>
</svg>
