<svg width="28" height="30" viewBox="0 0 28 30" fill="none" xmlns="http://www.w3.org/2000/svg">
<path d="M14 19C16.2091 19 18 17.2092 18 15C18 12.7909 16.2091 11.0001 14 11.0001C11.7909 11.0001 10 12.7909 10 15C10 17.2092 11.7909 19 14 19Z" stroke="#6E6363" stroke-width="1.82857"/>
<path d="M16.3533 1.86923C15.864 1.66656 15.2427 1.66656 14 1.66656C12.7574 1.66656 12.136 1.66656 11.6467 1.86923C11.3229 2.00325 11.0288 2.19976 10.781 2.44753C10.5332 2.6953 10.3367 2.98947 10.2027 3.31323C10.08 3.61056 10.0307 3.95856 10.012 4.46389C10.0037 4.82921 9.90269 5.18642 9.71844 5.50198C9.53419 5.81754 9.27276 6.08109 8.9587 6.26789C8.63989 6.44661 8.28089 6.54135 7.91541 6.54322C7.54993 6.54508 7.18998 6.45401 6.86937 6.27855C6.42137 6.04122 6.09737 5.91055 5.77604 5.86789C5.07513 5.77571 4.36631 5.96563 3.80538 6.39588C3.38671 6.71988 3.07471 7.25722 2.45338 8.33321C1.83205 9.40921 1.52005 9.94654 1.45205 10.4732C1.40623 10.8205 1.42928 11.1734 1.51987 11.5117C1.61047 11.8501 1.76684 12.1673 1.98005 12.4452C2.17738 12.7012 2.45338 12.9159 2.88138 13.1852C3.51205 13.5812 3.91738 14.2559 3.91738 14.9999C3.91738 15.7439 3.51205 16.4185 2.88138 16.8132C2.45338 17.0839 2.17605 17.2985 1.98005 17.5545C1.76684 17.8324 1.61047 18.1496 1.51987 18.488C1.42928 18.8263 1.40623 19.1792 1.45205 19.5265C1.52138 20.0518 1.83205 20.5905 2.45205 21.6665C3.07471 22.7425 3.38538 23.2798 3.80538 23.6038C4.08329 23.817 4.40049 23.9734 4.73885 24.064C5.07721 24.1546 5.4301 24.1777 5.77737 24.1318C6.09737 24.0892 6.42137 23.9585 6.86937 23.7212C7.18998 23.5457 7.54993 23.4546 7.91541 23.4565C8.28089 23.4584 8.63989 23.5531 8.9587 23.7318C9.60269 24.1052 9.98536 24.7918 10.012 25.5358C10.0307 26.0425 10.0787 26.3892 10.2027 26.6865C10.3367 27.0102 10.5332 27.3044 10.781 27.5522C11.0288 27.8 11.3229 27.9965 11.6467 28.1305C12.136 28.3332 12.7574 28.3332 14 28.3332C15.2427 28.3332 15.864 28.3332 16.3533 28.1305C16.6771 27.9965 16.9713 27.8 17.219 27.5522C17.4668 27.3044 17.6633 27.0102 17.7973 26.6865C17.92 26.3892 17.9693 26.0425 17.988 25.5358C18.0147 24.7918 18.3973 24.1038 19.0413 23.7318C19.3601 23.5531 19.7191 23.4584 20.0846 23.4565C20.4501 23.4546 20.81 23.5457 21.1307 23.7212C21.5787 23.9585 21.9027 24.0892 22.2227 24.1318C22.5699 24.1777 22.9228 24.1546 23.2612 24.064C23.5995 23.9734 23.9167 23.817 24.1947 23.6038C24.6146 23.2812 24.9253 22.7425 25.5466 21.6665C26.168 20.5905 26.48 20.0532 26.548 19.5265C26.5938 19.1792 26.5708 18.8263 26.4802 18.488C26.3896 18.1496 26.2332 17.8324 26.02 17.5545C25.8226 17.2985 25.5466 17.0839 25.1186 16.8145C24.8063 16.6247 24.5473 16.3585 24.3661 16.0411C24.1849 15.7237 24.0873 15.3654 24.0827 14.9999C24.0827 14.2559 24.488 13.5812 25.1186 13.1865C25.5466 12.9159 25.824 12.7012 26.02 12.4452C26.2332 12.1673 26.3896 11.8501 26.4802 11.5117C26.5708 11.1734 26.5938 10.8205 26.548 10.4732C26.4786 9.94787 26.168 9.40921 25.548 8.33321C24.9253 7.25722 24.6146 6.71988 24.1947 6.39588C23.9167 6.18267 23.5995 6.0263 23.2612 5.93571C22.9228 5.84511 22.5699 5.82207 22.2227 5.86789C21.9027 5.91055 21.5787 6.04122 21.1293 6.27855C20.8089 6.45377 20.4492 6.54471 20.084 6.54285C19.7187 6.54098 19.36 6.44637 19.0413 6.26789C18.7273 6.08109 18.4658 5.81754 18.2816 5.50198C18.0973 5.18642 17.9963 4.82921 17.988 4.46389C17.9693 3.95722 17.9213 3.61056 17.7973 3.31323C17.6633 2.98947 17.4668 2.6953 17.219 2.44753C16.9713 2.19976 16.6771 2.00325 16.3533 1.86923Z" stroke="#6E6363" stroke-width="1.82857"/>
</svg>
