<svg width="16" height="16" viewBox="0 0 16 16" fill="none" xmlns="http://www.w3.org/2000/svg">
<rect width="16" height="16" rx="8" fill="#FA5D5D"/>
<path d="M8.9375 11.375C8.9375 11.5604 8.88252 11.7417 8.7795 11.8958C8.67649 12.05 8.53007 12.1702 8.35877 12.2411C8.18746 12.3121 7.99896 12.3307 7.8171 12.2945C7.63525 12.2583 7.4682 12.169 7.33709 12.0379C7.20598 11.9068 7.11669 11.7398 7.08051 11.5579C7.04434 11.376 7.06291 11.1875 7.13386 11.0162C7.20482 10.8449 7.32498 10.6985 7.47915 10.5955C7.63332 10.4925 7.81458 10.4375 8 10.4375C8.24864 10.4375 8.4871 10.5363 8.66291 10.7121C8.83873 10.8879 8.9375 11.1264 8.9375 11.375ZM8 9.5C8.14918 9.5 8.29226 9.44074 8.39775 9.33525C8.50324 9.22976 8.5625 9.08668 8.5625 8.9375V4.25C8.5625 4.10082 8.50324 3.95774 8.39775 3.85225C8.29226 3.74676 8.14918 3.6875 8 3.6875C7.85082 3.6875 7.70774 3.74676 7.60225 3.85225C7.49676 3.95774 7.4375 4.10082 7.4375 4.25V8.9375C7.4375 9.08668 7.49676 9.22976 7.60225 9.33525C7.70774 9.44074 7.85082 9.5 8 9.5Z" fill="white"/>
</svg>
